<?xml version="1.0" standalone="no"?>
<!DOCTYPE svg PUBLIC "-//W3C//DTD SVG 20010904//EN"
 "http://www.w3.org/TR/2001/REC-SVG-20010904/DTD/svg10.dtd">
<svg version="1.0" xmlns="http://www.w3.org/2000/svg"
 width="512.000000pt" height="512.000000pt" viewBox="0 0 512.000000 512.000000"
 preserveAspectRatio="xMidYMid meet">

<g transform="translate(0.000000,512.000000) scale(0.100000,-0.100000)"
fill="#000000" stroke="none">
<path d="M2049 4957 c-24 -13 -57 -43 -74 -66 -29 -42 -30 -46 -33 -181 l-3
-139 -487 -3 c-541 -4 -525 -2 -622 -73 -108 -79 -140 -173 -140 -412 0 -207
1 -208 160 -216 l55 -2 132 -1785 c127 -1713 134 -1786 156 -1830 13 -25 42
-58 66 -75 l43 -30 1258 0 1258 0 43 30 c24 17 53 50 66 75 22 43 29 118 156
1830 l132 1785 55 2 c159 8 160 9 160 216 0 114 -5 181 -15 222 -28 108 -110
200 -217 243 -38 15 -100 17 -530 20 l-487 3 -3 139 c-3 135 -4 139 -33 181
-16 23 -50 53 -74 66 l-44 23 -467 0 -467 0 -44 -23z m973 -134 c15 -14 18
-32 18 -135 l0 -118 -480 0 -480 0 0 117 c0 94 3 120 17 135 15 17 43 18 461
18 400 0 447 -2 464 -17z m1121 -405 c55 -17 122 -82 136 -133 6 -22 11 -93
11 -157 l0 -118 -1730 0 -1730 0 0 118 c0 64 5 135 11 157 13 48 80 116 130
132 52 17 3117 17 3172 1z m-70 -600 c-3 -29 -62 -828 -132 -1775 -115 -1553
-129 -1724 -146 -1743 -18 -20 -23 -20 -1235 -20 -1211 0 -1217 0 -1235 20
-17 19 -31 191 -146 1743 -70 947 -129 1746 -132 1775 l-4 52 1517 0 1517 0
-4 -52z"/>
<path d="M1800 2090 l0 -1231 68 3 67 3 3 1228 2 1227 -70 0 -70 0 0 -1230z"/>
<path d="M2492 2093 l3 -1228 65 0 65 0 3 1228 2 1227 -70 0 -70 0 2 -1227z"/>
<path d="M3182 2093 l3 -1228 68 -3 67 -3 0 1231 0 1230 -70 0 -70 0 2 -1227z"/>
</g>
</svg>
