<?xml version="1.0" standalone="no"?>
<!DOCTYPE svg PUBLIC "-//W3C//DTD SVG 20010904//EN"
 "http://www.w3.org/TR/2001/REC-SVG-20010904/DTD/svg10.dtd">
<svg version="1.0" xmlns="http://www.w3.org/2000/svg"
 width="360.000000pt" height="782.000000pt" viewBox="0 0 360.000000 782.000000"
 preserveAspectRatio="xMidYMid meet">

<g transform="translate(0.000000,782.000000) scale(0.100000,-0.100000)"
fill="#000000" stroke="none">
<path d="M1495 7514 c-393 -32 -709 -127 -850 -256 -85 -78 -130 -210 -154
-452 -13 -132 -14 -588 -1 -781 5 -77 13 -228 16 -335 l7 -196 -84 -18 c-134
-29 -267 -74 -279 -96 -5 -10 -10 -40 -10 -65 0 -38 5 -52 29 -76 40 -40 72
-38 202 12 l107 41 9 46 c4 25 13 47 19 49 8 3 13 -256 18 -904 l6 -908 26
-22 c15 -14 38 -23 56 -23 l32 0 -22 -20 -22 -21 0 -1584 c0 -1426 2 -1585 16
-1599 14 -14 135 -16 1180 -16 784 0 1172 3 1185 10 19 11 19 39 19 1602 0
1467 -1 1593 -17 1610 -15 17 -15 18 11 18 40 0 62 15 75 51 7 22 11 289 12
858 2 836 4 951 19 951 4 0 11 -22 15 -48 l6 -48 109 -42 c128 -49 157 -52
200 -16 29 25 31 30 28 88 l-3 61 -45 22 c-25 12 -107 36 -184 55 l-139 33 7
165 c3 91 11 235 17 320 15 213 15 721 1 844 -29 233 -62 333 -139 416 -112
121 -340 204 -702 256 -103 15 -656 27 -776 18z m-215 -58 c-34 -31 -482 -316
-498 -316 -29 0 -142 41 -142 52 0 23 106 110 181 147 93 47 179 74 334 107
136 28 144 29 125 10z m1170 -12 c211 -41 373 -108 460 -192 28 -27 50 -53 50
-59 0 -15 -126 -56 -151 -50 -26 7 -489 310 -489 320 0 4 10 5 23 3 12 -3 60
-13 107 -22z m-409 -114 c224 -23 407 -74 594 -165 120 -59 181 -104 196 -143
14 -37 69 -1043 56 -1032 -3 3 -15 124 -27 270 -41 527 -60 721 -70 740 -33
61 -258 169 -466 224 -161 42 -288 56 -514 56 -290 0 -429 -19 -641 -90 -179
-59 -327 -138 -353 -188 -14 -27 -30 -186 -76 -766 -21 -262 -37 -345 -27
-141 33 679 49 911 66 940 62 109 461 262 766 294 118 12 378 13 496 1z m-76
-1380 c319 -21 610 -63 783 -113 90 -26 122 -48 122 -83 0 -31 -147 -670 -160
-694 -27 -51 -6 -50 -915 -50 l-845 0 -34 33 c-33 31 -36 40 -111 375 -90 397
-91 377 18 411 186 57 463 97 867 124 94 7 129 6 275 -3z m-1500 -489 c-6 -5
-50 -23 -100 -41 -181 -66 -195 -74 -195 -117 0 -13 -4 -23 -10 -23 -12 0 -13
69 -2 87 4 7 52 26 107 43 55 18 118 38 140 45 48 16 73 19 60 6z m2849 -40
c59 -16 113 -34 118 -39 5 -5 8 -31 6 -58 l-3 -49 -15 45 -15 45 -105 36
c-137 46 -140 47 -115 48 11 1 69 -12 129 -28z m-2647 -83 c93 -188 140 -368
150 -567 l6 -134 -97 6 c-54 3 -100 7 -102 9 -6 7 -9 768 -3 768 3 0 24 -37
46 -82z m2321 -298 c-3 -209 -8 -383 -11 -387 -4 -3 -50 -8 -103 -11 l-97 -5
6 124 c7 133 31 258 71 381 32 97 116 278 129 278 6 0 8 -131 5 -380z m-703
-110 c244 -12 333 -24 357 -48 25 -25 38 -161 38 -407 0 -346 -29 -764 -55
-785 -7 -5 -34 -13 -61 -16 -36 -4 -45 -3 -34 5 8 6 22 11 31 11 19 0 23 19
40 205 14 147 18 815 6 887 -5 29 -15 52 -25 57 -46 25 -192 33 -656 38 -552
6 -881 -9 -913 -40 -27 -28 -40 -381 -24 -704 12 -250 28 -423 40 -436 4 -4
37 -12 72 -17 l64 -9 -88 3 c-48 1 -92 7 -97 12 -29 29 -52 362 -54 749 -1
313 6 413 32 445 21 25 114 39 337 49 245 12 756 12 990 1z m-1497 -410 l32 0
0 -435 0 -436 -97 3 -98 3 -3 439 -2 439 67 -6 c38 -4 83 -7 101 -7z m2190
-427 l-3 -438 -95 0 -95 0 0 430 0 430 55 6 c30 3 74 6 98 7 l42 2 -2 -437z
m-58 -653 c20 -20 20 -33 20 -1535 0 -1502 0 -1515 -20 -1535 -20 -20 -33 -20
-1117 -20 l-1097 0 -23 22 -23 21 0 1514 c0 1500 0 1513 20 1533 20 20 33 20
1120 20 1087 0 1100 0 1120 -20z"/>
<path d="M811 3407 c-13 -6 -34 -25 -45 -40 l-21 -28 0 -1420 0 -1419 33 -32
32 -33 968 -3 c683 -2 978 0 1005 8 25 7 45 22 57 43 20 31 20 62 20 1435 0
1209 -2 1407 -15 1438 -28 67 22 64 -1047 64 -744 0 -968 -3 -987 -13z m1969
-67 c20 -20 20 -33 20 -1419 l0 -1400 -22 -15 c-20 -14 -130 -16 -980 -16
-945 0 -958 0 -978 20 -20 20 -20 33 -20 1415 0 1382 0 1395 20 1415 20 20 33
20 980 20 947 0 960 0 980 -20z"/>
<path d="M846 3294 c-3 -8 -6 -265 -6 -570 l0 -554 125 0 c139 0 173 -10 193
-55 9 -19 12 -151 12 -486 l0 -461 -34 -34 -34 -34 -131 0 -131 0 0 -274 c0
-218 3 -276 14 -285 10 -8 268 -10 957 -9 l944 3 3 282 2 283 -119 0 c-138 0
-163 7 -191 52 -20 32 -20 47 -18 496 l3 464 33 29 c32 29 33 29 162 29 l130
0 -2 568 -3 567 -951 3 c-862 2 -952 1 -958 -14z m545 -94 c19 -11 19 -35 19
-1270 0 -692 -3 -1265 -6 -1274 -7 -19 -45 -21 -62 -4 -9 9 -12 305 -12 1269
0 1130 2 1259 16 1273 18 19 20 19 45 6z m227 -1283 l-3 -1272 -30 0 -30 0 -3
1270 c-2 1169 -1 1271 14 1282 12 9 22 9 35 2 18 -9 19 -49 17 -1282z m203
1283 c19 -11 19 -35 19 -1270 0 -692 -3 -1265 -6 -1274 -7 -19 -45 -21 -62 -4
-9 9 -12 305 -12 1269 0 1130 2 1259 16 1273 18 19 20 19 45 6z m227 -1283
l-3 -1272 -30 0 -30 0 -3 1270 c-2 1169 -1 1271 14 1282 12 9 22 9 35 2 18 -9
19 -49 17 -1282z m203 1283 c19 -11 19 -35 19 -1270 0 -692 -3 -1265 -6 -1274
-7 -19 -45 -21 -62 -4 -9 9 -12 304 -12 1267 0 1153 1 1256 17 1273 19 21 19
21 44 8z"/>
<path d="M840 1635 l0 -505 128 0 c190 0 172 -54 172 508 0 449 -1 463 -20
482 -18 18 -33 20 -150 20 l-130 0 0 -505z"/>
<path d="M2480 2118 c-20 -21 -20 -33 -20 -480 l0 -459 25 -24 c23 -24 30 -25
150 -25 l125 0 0 505 0 505 -130 0 c-120 0 -131 -2 -150 -22z"/>
</g>
</svg>
